<svg xmlns="http://www.w3.org/2000/svg" version="1.1" xmlns:xlink="http://www.w3.org/1999/xlink" xmlns:svgjs="http://svgjs.dev/svgjs" width="1500" height="1500" viewBox="0 0 1500 1500"><rect width="1500" height="1500" fill="#ffffff"></rect><g transform="matrix(0.6666666666666666,0,0,0.6666666666666666,249.39393939393938,438.5856950067477)"><svg viewBox="0 0 396 247" data-background-color="#ffffff" preserveAspectRatio="xMidYMid meet" height="935" width="1500" xmlns="http://www.w3.org/2000/svg" xmlns:xlink="http://www.w3.org/1999/xlink"><g id="tight-bounds" transform="matrix(1,0,0,1,0.2400000000000091,-0.09999999999999432)"><svg viewBox="0 0 395.52 247.2" height="247.2" width="395.52"><g><svg></svg></g><g><svg viewBox="0 0 395.52 247.2" height="247.2" width="395.52"><g transform="matrix(1,0,0,1,75.54432,87.19724107321518)"><svg viewBox="0 0 244.43135999999998 72.80551785356963" height="72.80551785356963" width="244.43135999999998"><g><svg viewBox="0 0 244.43135999999998 72.80551785356963" height="72.80551785356963" width="244.43135999999998"><g><svg viewBox="0 0 244.43135999999998 72.80551785356963" height="72.80551785356963" width="244.43135999999998"><g id="textblocktransform"><svg viewBox="0 0 244.43135999999998 72.80551785356963" height="72.80551785356963" width="244.43135999999998" id="textblock"><g><svg viewBox="0 0 244.43135999999998 33.30420253164557" height="33.30420253164557" width="244.43135999999998"><g transform="matrix(1,0,0,1,0,0)"><svg width="244.43135999999998" viewBox="0.7 -37.8 284.38 38.75" height="33.30420253164557" data-palette-color="#085f63"><path d="M17.75 0.95Q13.45 0.95 9.75-1.07 6.05-3.1 2.6-6.65L2.6-6.65Q2.5-6.75 2.35-6.75L2.35-6.75Q1.9-6.75 1.35-6.2L1.35-6.2 0.7-6.9 7.65-13.45 8.3-12.75Q8-12.5 7.75-12.05 7.5-11.6 7.65-11.4L7.65-11.4Q12.3-5.5 17.8-5.5L17.8-5.5Q19.7-5.5 21.23-6.25 22.75-7 23.6-8.18 24.45-9.35 24.45-10.6L24.45-10.6Q24.45-13.55 19.3-15.45L19.3-15.45 13.15-17.75Q9.45-19.1 7.38-21.45 5.3-23.8 5.3-27.1L5.3-27.1Q5.3-30.35 6.83-32.77 8.35-35.2 11.15-36.5 13.95-37.8 17.65-37.8L17.65-37.8Q21.15-37.8 23.53-36.73 25.9-35.65 28.6-33.45L28.6-33.45Q28.65-33.4 28.8-33.4L28.8-33.4Q29.05-33.4 29.38-33.58 29.7-33.75 29.9-33.95L29.9-33.95 30.55-33.3 24.35-27.2 23.7-27.9Q23.95-28.15 24.08-28.48 24.2-28.8 24-28.95L24-28.95Q20.75-31.55 17.55-31.55L17.55-31.55Q15-31.55 13.5-30.38 12-29.2 12-27.4L12-27.4Q12-25.8 12.83-24.95 13.65-24.1 15.35-23.5L15.35-23.5 21.4-21.3Q24.55-20.15 26.65-18.88 28.75-17.6 30-15.53 31.25-13.45 31.25-10.35L31.25-10.35Q31.25-7.35 29.68-4.78 28.1-2.2 25.03-0.63 21.95 0.95 17.75 0.95L17.75 0.95ZM60.25-13.45L60.25-1.5Q60.25-1.25 60.62-1.1 61-0.95 61.4-0.95L61.4-0.95 61.4 0 52.6 0 52.6-0.95Q53-0.95 53.37-1.1 53.75-1.25 53.75-1.5L53.75-1.5 53.75-11.9Q53.75-14.45 52.5-16.28 51.25-18.1 48.75-18.1L48.75-18.1Q46.2-18.1 44.5-16.4 42.8-14.7 42.8-11.5L42.8-11.5 42.8-1.5Q42.8-1.25 43.17-1.1 43.55-0.95 43.9-0.95L43.9-0.95 43.9 0 35.45 0 35.45-0.95Q35.8-0.95 36.17-1.1 36.55-1.25 36.55-1.5L36.55-1.5 36.55-36Q36.55-36.25 36.17-36.4 35.8-36.55 35.45-36.55L35.45-36.55 35.45-37.5 43.9-37.5 43.9-36.55Q43.55-36.55 43.17-36.4 42.8-36.25 42.8-36L42.8-36 42.8-20.75Q44.1-22 45.97-22.75 47.85-23.5 49.75-23.5L49.75-23.5Q53-23.5 55.37-22.15 57.75-20.8 59-18.53 60.25-16.25 60.25-13.45L60.25-13.45ZM93.05-23L93.05-22.05Q92.7-22.05 92.32-21.9 91.95-21.75 91.95-21.5L91.95-21.5 91.95-1.5Q91.95-1.25 92.32-1.1 92.7-0.95 93.05-0.95L93.05-0.95 93.05 0 85.65 0 85.65-2.75Q82.5 0.65 77.7 0.65L77.7 0.65Q74.05 0.65 71.27-0.83 68.5-2.3 66.97-5.05 65.45-7.8 65.45-11.45L65.45-11.45Q65.45-15 67.12-17.78 68.8-20.55 71.6-22.08 74.4-23.6 77.7-23.6L77.7-23.6Q82.5-23.6 85.65-19.9L85.65-19.9 85.65-23 93.05-23ZM78.45-4.65Q80.5-4.65 82.12-5.58 83.75-6.5 84.65-8.03 85.55-9.55 85.55-11.3L85.55-11.3Q85.55-14.3 83.57-16.25 81.6-18.2 78.45-18.2L78.45-18.2Q75.4-18.2 73.42-16.3 71.45-14.4 71.45-11.45L71.45-11.45Q71.45-8.35 73.47-6.5 75.5-4.65 78.45-4.65L78.45-4.65ZM107.34 0.75Q104.79 0.75 102.42-0.3 100.04-1.35 97.64-3.3L97.64-3.3Q97.54-3.4 97.39-3.4L97.39-3.4Q96.99-3.4 96.54-2.95L96.54-2.95 95.84-3.55 100.84-9.25 101.54-8.6Q101.34-8.35 101.22-8 101.09-7.65 101.29-7.45L101.29-7.45Q102.94-5.95 104.37-5.23 105.79-4.5 107.34-4.5L107.34-4.5Q111.19-4.5 111.19-7.05L111.19-7.05Q111.19-8.2 110.02-8.83 108.84-9.45 106.09-10.2L106.09-10.2Q102.54-11.15 100.94-12.68 99.34-14.2 99.34-16.85L99.34-16.85Q99.34-20 101.39-21.98 103.44-23.95 106.99-23.95L106.99-23.95Q108.79-23.95 110.24-23.4 111.69-22.85 113.74-21.45L113.74-21.45Q113.79-21.4 113.94-21.4L113.94-21.4Q114.19-21.4 114.44-21.55 114.69-21.7 114.79-21.85L114.79-21.85 115.54-21.2 111.04-16.1 110.34-16.7Q110.54-16.9 110.62-17.23 110.69-17.55 110.49-17.75L110.49-17.75Q109.59-18.45 108.77-18.8 107.94-19.15 106.94-19.15L106.94-19.15Q105.89-19.15 105.29-18.75 104.69-18.35 104.69-17.55L104.69-17.55Q104.69-16.9 105.04-16.5 105.39-16.1 106.32-15.7 107.24-15.3 109.14-14.7L109.14-14.7Q112.64-13.65 114.64-11.78 116.64-9.9 116.64-7.15L116.64-7.15Q116.64-3.1 114.09-1.18 111.54 0.75 107.34 0.75L107.34 0.75ZM138.19-14.55L134.44-2.4 134.34-1.95Q134.34-1.4 134.77-1.18 135.19-0.95 135.64-0.95L135.64-0.95 135.64 0 125.34 0 125.34-0.95Q125.74-0.95 126.14-1.15 126.54-1.35 126.54-1.85L126.54-1.85Q126.54-1.95 126.44-2.35L126.44-2.35 119.49-21.6Q119.39-21.85 119.07-21.95 118.74-22.05 118.39-22.05L118.39-22.05 118.39-23 126.84-23 126.84-22.05Q126.24-22.05 126.02-21.75 125.79-21.45 125.89-21.1L125.89-21.1 130.94-6.95 135.19-20.6Q135.24-20.75 135.24-21.05L135.24-21.05Q135.24-21.6 134.89-21.83 134.54-22.05 134.19-22.05L134.19-22.05 134.19-23 142.69-23 142.69-22.05Q142.34-22.05 141.97-21.83 141.59-21.6 141.59-21L141.59-21Q141.59-20.75 141.64-20.6L141.64-20.6 145.44-6.85 150.64-21.1Q150.74-21.4 150.29-21.73 149.84-22.05 149.24-22.05L149.24-22.05 149.24-23 157.39-23 157.39-22.05Q157.04-22.05 156.72-21.95 156.39-21.85 156.29-21.6L156.29-21.6 149.44-2.35Q149.34-2.15 149.34-1.85L149.34-1.85Q149.34-1.35 149.74-1.15 150.14-0.95 150.54-0.95L150.54-0.95 150.54 0 139.99 0 139.99-0.95Q140.44-0.95 140.92-1.18 141.39-1.4 141.39-2L141.39-2Q141.39-2.25 141.34-2.4L141.34-2.4 138.19-14.55ZM187.24-23L187.24-22.05Q186.89-22.05 186.51-21.9 186.14-21.75 186.14-21.5L186.14-21.5 186.14-1.5Q186.14-1.25 186.51-1.1 186.89-0.95 187.24-0.95L187.24-0.95 187.24 0 179.84 0 179.84-2.75Q176.69 0.65 171.89 0.65L171.89 0.65Q168.24 0.65 165.46-0.83 162.69-2.3 161.16-5.05 159.64-7.8 159.64-11.45L159.64-11.45Q159.64-15 161.31-17.78 162.99-20.55 165.79-22.08 168.59-23.6 171.89-23.6L171.89-23.6Q176.69-23.6 179.84-19.9L179.84-19.9 179.84-23 187.24-23ZM172.64-4.65Q174.69-4.65 176.31-5.58 177.94-6.5 178.84-8.03 179.74-9.55 179.74-11.3L179.74-11.3Q179.74-14.3 177.76-16.25 175.79-18.2 172.64-18.2L172.64-18.2Q169.59-18.2 167.61-16.3 165.64-14.4 165.64-11.45L165.64-11.45Q165.64-8.35 167.66-6.5 169.69-4.65 172.64-4.65L172.64-4.65ZM204.29-24L205.24-24 205.24-16.4 204.29-16.4Q204.29-16.75 204.14-17.07 203.99-17.4 203.74-17.4L203.74-17.4 200.49-17.4 200.49-1.5Q200.49-1.25 200.84-1.1 201.19-0.95 201.54-0.95L201.54-0.95 201.54 0 193.39 0 193.39-0.95Q193.74-0.95 194.09-1.1 194.44-1.25 194.44-1.5L194.44-1.5 194.44-17.4 192.04-17.4Q191.79-17.4 191.64-17.07 191.49-16.75 191.49-16.4L191.49-16.4 190.54-16.4 190.54-24 191.49-24Q191.49-23.65 191.64-23.33 191.79-23 192.04-23L192.04-23 194.44-23 194.44-28.85Q194.44-29.1 194.09-29.25 193.74-29.4 193.39-29.4L193.39-29.4 193.39-30.35 201.54-30.35 201.54-29.4Q201.19-29.4 200.84-29.25 200.49-29.1 200.49-28.85L200.49-28.85 200.49-23 203.74-23Q203.99-23 204.14-23.33 204.29-23.65 204.29-24L204.29-24ZM236.58-20.5L254.08-1.1Q254.28-0.85 254.81-0.9 255.33-0.95 255.38-0.95L255.38-0.95 255.38 0 244.08 0 244.08-0.95Q244.78-0.95 244.88-1.1 244.98-1.25 244.73-1.5L244.73-1.5 231.88-15.8 230.23-14.1 230.23-1.5Q230.23-1.25 230.61-1.1 230.98-0.95 231.33-0.95L231.33-0.95 231.33 0 222.73 0 222.73-0.95Q223.08-0.95 223.46-1.1 223.83-1.25 223.83-1.5L223.83-1.5 223.83-36Q223.83-36.25 223.46-36.4 223.08-36.55 222.73-36.55L222.73-36.55 222.73-37.5 231.33-37.5 231.33-36.55Q230.98-36.55 230.61-36.4 230.23-36.25 230.23-36L230.23-36 230.23-22.9 243.33-36.1Q243.43-36.2 243.43-36.3L243.43-36.3Q243.43-36.55 242.63-36.55L242.63-36.55 242.63-37.5 253.98-37.5 253.98-36.55 253.03-36.6Q252.58-36.6 252.33-36.45L252.33-36.45 236.58-20.5ZM272.38-24.5L273.33-24.5 273.33-16.45 272.38-16.45Q272.38-16.8 272.23-17.25 272.08-17.7 271.83-17.75L271.83-17.75 271.48-17.75Q269.93-17.75 268.35-16.88 266.78-16 265.75-14.58 264.73-13.15 264.73-11.55L264.73-11.55 264.73-1.5Q264.73-1.25 265.1-1.1 265.48-0.95 265.83-0.95L265.83-0.95 265.83 0 257.43 0 257.43-0.95Q257.78-0.95 258.15-1.1 258.53-1.25 258.53-1.5L258.53-1.5 258.53-21.5Q258.53-21.75 258.15-21.9 257.78-22.05 257.43-22.05L257.43-22.05 257.43-23 264.73-23 264.73-20.85Q266.08-22.1 267.98-22.85 269.88-23.6 271.78-23.6L271.78-23.6 271.83-23.6 271.88-23.6Q272.13-23.6 272.25-23.9 272.38-24.2 272.38-24.5L272.38-24.5ZM280.88 0.55Q279.03 0.55 277.8-0.68 276.58-1.9 276.58-3.75L276.58-3.75Q276.58-5.5 277.83-6.73 279.08-7.95 280.88-7.95L280.88-7.95Q282.63-7.95 283.85-6.73 285.08-5.5 285.08-3.75L285.08-3.75Q285.08-1.9 283.85-0.68 282.63 0.55 280.88 0.55L280.88 0.55Z" opacity="1" transform="matrix(1,0,0,1,0,0)" fill="#085f63" class="wordmark-text-0" data-fill-palette-color="primary" id="text-0"></path></svg></g></svg></g><g transform="matrix(1,0,0,1,0,41.166525448506334)"><svg viewBox="0 0 244.43135999999998 31.638992405063295" height="31.638992405063295" width="244.43135999999998"><g transform="matrix(1,0,0,1,0,0)"><svg width="244.43135999999998" viewBox="1.98 -38.57 398.53999999999996 51.58" height="31.638992405063295" data-palette-color="#49beb7"><path d="M35.91-26.44L35.91-26.44 31.74-24.68Q31.25-26.27 30.43-27.59 29.61-28.91 28.48-29.85 27.34-30.79 25.9-31.31 24.46-31.84 22.75-31.84L22.75-31.84Q20.92-31.84 19.4-31.24 17.87-30.64 16.66-29.59 15.45-28.54 14.55-27.15 13.65-25.76 13.04-24.18 12.43-22.61 12.13-20.92 11.84-19.24 11.84-17.63L11.84-17.63Q11.84-15.06 12.44-12.52 13.04-9.99 14.34-7.96 15.65-5.93 17.72-4.68 19.8-3.42 22.75-3.42L22.75-3.42Q24.32-3.42 25.71-3.94 27.1-4.47 28.23-5.38 29.37-6.3 30.22-7.54 31.08-8.79 31.59-10.23L31.59-10.23 35.82-8.54Q34.89-6.23 33.28-4.48 31.67-2.73 29.6-1.59 27.54-0.44 25.18 0.13 22.83 0.71 20.43 0.71L20.43 0.71Q17.85 0.71 15.47 0.07 13.09-0.56 11.04-1.73 8.98-2.91 7.31-4.57 5.64-6.23 4.46-8.25 3.27-10.28 2.62-12.66 1.98-15.04 1.98-17.63L1.98-17.63Q1.98-20.21 2.62-22.6 3.27-24.98 4.46-27.01 5.64-29.05 7.31-30.71 8.98-32.37 11.04-33.54 13.09-34.72 15.47-35.35 17.85-35.99 20.43-35.99L20.43-35.99Q22.92-35.99 25.31-35.4 27.69-34.81 29.74-33.63 31.79-32.45 33.39-30.65 34.99-28.86 35.91-26.44ZM82.14-16.16L82.14-16.16Q82.14-13.31 81.44-10.21 80.75-7.1 79.5-4.13 78.26-1.15 76.52 1.48 74.79 4.1 72.72 6.01L72.72 6.01 69.61 4.32Q70.27 3.1 70.86 1.59 71.45 0.07 71.92-1.62 72.4-3.32 72.78-5.13 73.15-6.93 73.41-8.7 73.67-10.47 73.8-12.15 73.94-13.82 73.94-15.26L73.94-15.26Q73.94-16.21 73.86-17.3 73.79-18.38 73.56-19.47 73.33-20.56 72.93-21.56 72.54-22.56 71.9-23.32 71.25-24.07 70.33-24.54 69.42-25 68.17-25L68.17-25Q66.95-25 66-24.45 65.05-23.9 64.32-23.01 63.58-22.12 63.06-20.97 62.53-19.82 62.2-18.62 61.88-17.41 61.73-16.24 61.58-15.06 61.58-14.14L61.58-14.14 61.58 0 53.31 0 53.31-38.57 61.56-38.57 61.56-24.05Q63.14-26.37 65.45-27.62 67.76-28.88 70.57-28.88L70.57-28.88Q73.5-28.88 75.67-27.93 77.84-26.98 79.28-25.28 80.72-23.58 81.43-21.25 82.14-18.92 82.14-16.16ZM128.24-28.2L128.24 0 119.99 0 119.99-3.37Q118.53-1.37 116.46-0.4 114.4 0.56 111.93 0.56L111.93 0.56Q108.71 0.56 106.17-0.59 103.63-1.73 101.88-3.72 100.12-5.71 99.19-8.4 98.26-11.08 98.26-14.16L98.26-14.16Q98.26-17.24 99.19-19.92 100.12-22.61 101.88-24.6 103.63-26.59 106.17-27.73 108.71-28.88 111.93-28.88L111.93-28.88Q113.57-28.88 115.05-28.39 116.52-27.91 117.76-27.01 118.99-26.12 119.93-24.87 120.87-23.61 121.41-22.07L121.41-22.07 125.07-28.2 128.24-28.2ZM119.94-14.16L119.94-14.16Q119.94-15.26 119.83-16.48 119.72-17.7 119.45-18.9 119.18-20.09 118.71-21.18 118.23-22.27 117.49-23.11 116.74-23.95 115.69-24.44 114.64-24.93 113.25-24.93L113.25-24.93Q111.86-24.93 110.84-24.43 109.81-23.93 109.08-23.08 108.35-22.24 107.87-21.14 107.39-20.04 107.12-18.85 106.86-17.65 106.75-16.44 106.64-15.23 106.64-14.16L106.64-14.16Q106.64-13.09 106.75-11.87 106.86-10.64 107.12-9.45 107.39-8.25 107.87-7.15 108.35-6.05 109.08-5.21 109.81-4.37 110.84-3.87 111.86-3.37 113.25-3.37L113.25-3.37Q114.52-3.37 115.51-3.89 116.5-4.42 117.24-5.3 117.99-6.18 118.5-7.3 119.01-8.42 119.33-9.62 119.65-10.82 119.8-12 119.94-13.18 119.94-14.16ZM145.95-12.06L145.95-12.06Q145.95-13.99 146.28-16.06 146.61-18.14 147.23-20.21 147.86-22.29 148.74-24.32 149.61-26.34 150.71-28.2L150.71-28.2 156.74-28.2Q156.13-26.37 155.66-24.38 155.18-22.39 154.85-20.4 154.52-18.41 154.34-16.5 154.16-14.6 154.16-12.96L154.16-12.96Q154.16-12.01 154.24-10.93 154.33-9.84 154.55-8.75 154.77-7.67 155.17-6.67 155.57-5.66 156.21-4.9 156.84-4.13 157.76-3.67 158.67-3.22 159.92-3.22L159.92-3.22Q161.14-3.22 162.1-3.77 163.07-4.32 163.8-5.21 164.53-6.1 165.04-7.25 165.56-8.4 165.89-9.61 166.22-10.82 166.38-11.98 166.53-13.13 166.53-14.06L166.53-14.06 166.53-28.2 174.79-28.2 174.79 0 171.61 0 167.83-6.57Q167.12-4.93 166.11-3.6 165.09-2.27 163.8-1.32 162.51-0.37 160.93 0.15 159.36 0.66 157.53 0.66L157.53 0.66Q154.6 0.66 152.42-0.29 150.25-1.25 148.81-2.93 147.37-4.61 146.66-6.95 145.95-9.28 145.95-12.06ZM222.35-38.57L222.35 0 219.18 0 215.52-6.13Q214.98-4.59 214.04-3.34 213.1-2.1 211.87-1.21 210.64-0.32 209.16 0.17 207.68 0.66 206.05 0.66L206.05 0.66Q202.82 0.66 200.28-0.49 197.74-1.64 195.99-3.63 194.23-5.62 193.3-8.3 192.37-10.99 192.37-14.06L192.37-14.06Q192.37-17.14 193.3-19.82 194.23-22.51 195.99-24.49 197.74-26.46 200.28-27.61 202.82-28.76 206.05-28.76L206.05-28.76Q208.51-28.76 210.57-27.81 212.64-26.86 214.1-24.83L214.1-24.83 214.1-38.57 222.35-38.57ZM214.05-14.06L214.05-14.06Q214.05-15.04 213.91-16.21 213.76-17.38 213.44-18.58 213.13-19.78 212.61-20.9 212.1-22.02 211.36-22.9 210.61-23.78 209.62-24.3 208.63-24.83 207.36-24.83L207.36-24.83Q205.97-24.83 204.95-24.33 203.92-23.83 203.19-22.99 202.46-22.14 201.98-21.04 201.5-19.95 201.24-18.75 200.97-17.55 200.86-16.35 200.75-15.14 200.75-14.06L200.75-14.06Q200.75-12.99 200.86-11.78 200.97-10.57 201.24-9.38 201.5-8.18 201.98-7.07 202.46-5.96 203.19-5.11 203.92-4.27 204.95-3.77 205.97-3.27 207.36-3.27L207.36-3.27Q208.76-3.27 209.81-3.76 210.86-4.25 211.6-5.09 212.34-5.93 212.82-7.02 213.3-8.11 213.57-9.31 213.83-10.52 213.94-11.74 214.05-12.96 214.05-14.06ZM270.34-16.16L270.34-16.16Q270.34-13.31 269.64-10.21 268.95-7.1 267.7-4.13 266.46-1.15 264.72 1.48 262.99 4.1 260.91 6.01L260.91 6.01 257.81 4.32Q258.47 3.1 259.06 1.59 259.64 0.07 260.12-1.62 260.6-3.32 260.98-5.13 261.35-6.93 261.61-8.7 261.87-10.47 262-12.15 262.13-13.82 262.13-15.26L262.13-15.26Q262.13-16.21 262.06-17.3 261.99-18.38 261.76-19.47 261.52-20.56 261.13-21.56 260.74-22.56 260.1-23.32 259.45-24.07 258.53-24.54 257.62-25 256.37-25L256.37-25Q255.15-25 254.2-24.45 253.25-23.9 252.52-23.01 251.78-22.12 251.26-20.97 250.73-19.82 250.4-18.62 250.07-17.41 249.93-16.24 249.78-15.06 249.78-14.14L249.78-14.14 249.78 0 241.5 0 241.5-38.57 249.76-38.57 249.76-24.05Q251.34-26.37 253.65-27.62 255.96-28.88 258.77-28.88L258.77-28.88Q261.7-28.88 263.87-27.93 266.04-26.98 267.48-25.28 268.92-23.58 269.63-21.25 270.34-18.92 270.34-16.16ZM316.44-28.2L316.44 0 308.19 0 308.19-3.37Q306.72-1.37 304.66-0.4 302.6 0.56 300.13 0.56L300.13 0.56Q296.91 0.56 294.37-0.59 291.83-1.73 290.07-3.72 288.32-5.71 287.39-8.4 286.46-11.08 286.46-14.16L286.46-14.16Q286.46-17.24 287.39-19.92 288.32-22.61 290.07-24.6 291.83-26.59 294.37-27.73 296.91-28.88 300.13-28.88L300.13-28.88Q301.77-28.88 303.25-28.39 304.72-27.91 305.96-27.01 307.19-26.12 308.13-24.87 309.07-23.61 309.61-22.07L309.61-22.07 313.27-28.2 316.44-28.2ZM308.14-14.16L308.14-14.16Q308.14-15.26 308.03-16.48 307.92-17.7 307.65-18.9 307.38-20.09 306.91-21.18 306.43-22.27 305.69-23.11 304.94-23.95 303.89-24.44 302.84-24.93 301.45-24.93L301.45-24.93Q300.06-24.93 299.03-24.43 298.01-23.93 297.28-23.08 296.54-22.24 296.07-21.14 295.59-20.04 295.32-18.85 295.05-17.65 294.95-16.44 294.84-15.23 294.84-14.16L294.84-14.16Q294.84-13.09 294.95-11.87 295.05-10.64 295.32-9.45 295.59-8.25 296.07-7.15 296.54-6.05 297.28-5.21 298.01-4.37 299.03-3.87 300.06-3.37 301.45-3.37L301.45-3.37Q302.72-3.37 303.71-3.89 304.7-4.42 305.44-5.3 306.19-6.18 306.7-7.3 307.21-8.42 307.53-9.62 307.85-10.82 307.99-12 308.14-13.18 308.14-14.16ZM359.57-25.71L359.57-25.71 354.93-18.02Q354.64-18.99 354.17-20.21 353.71-21.44 353.02-22.5 352.34-23.56 351.39-24.28 350.44-25 349.19-25L349.19-25Q348.04-25 347.2-24.41 346.36-23.83 345.77-22.89 345.19-21.95 344.81-20.76 344.43-19.58 344.22-18.37 344.02-17.16 343.94-16.05 343.87-14.94 343.87-14.14L343.87-14.14 343.87 0 335.59 0 335.59-28.2 338.77-28.2 342.11-21.63Q342.79-23.22 343.67-24.55 344.55-25.88 345.7-26.84 346.85-27.81 348.3-28.34 349.75-28.88 351.58-28.88L351.58-28.88Q352.54-28.88 353.71-28.72 354.88-28.56 356-28.19 357.13-27.81 358.08-27.2 359.03-26.59 359.57-25.71ZM394.81-28.2L400.52-28.2 390.27-3.39Q388.51 0.85 386.35 5.02 384.19 9.18 381.67 13.01L381.67 13.01 378.45 11.06Q379.06 9.96 379.89 8.52 380.72 7.08 381.53 5.54 382.33 4 383.01 2.5 383.7 1 384.06-0.24L384.06-0.24 371.74-28.2 379.99-28.2 388.36-9.13 394.81-28.2Z" opacity="1" transform="matrix(1,0,0,1,0,0)" fill="#49beb7" class="slogan-text-1" data-fill-palette-color="secondary" id="text-1"></path></svg></g></svg></g></svg></g></svg></g></svg></g></svg></g><g><path d="M245.816 0c68.262 0 123.6 55.338 123.6 123.6 0 68.262-55.338 123.6-123.6 123.6-54.139 0-100.149-34.808-116.87-83.266l1.59 0c16.658 47.614 61.98 81.764 115.28 81.764 67.433 0 122.098-54.665 122.098-122.098 0-67.433-54.665-122.098-122.098-122.098-53.299 0-98.621 34.151-115.28 81.764l-1.59 0c16.721-48.458 62.73-83.266 116.87-83.266z" fill="#085f63" stroke="transparent" data-fill-palette-color="tertiary"></path></g></svg></g><defs></defs></svg><rect width="395.52" height="247.2" fill="none" stroke="none" visibility="hidden"></rect></g></svg></g></svg>